# xmcd CD database file
#
# Track frame offsets:
#	150
#	12581
#	26134
#	35209
#	45756
#	57074
#	68969
#	82884
#	92669
#	105874
#	117874
#	132217
#	147764
#	157125
#	169175
#	186626
#	200867
#	212698
#	221953
#	235809
#	248514
#	265391
#	279221
#	295087
#	309049
#
# Disc length: 4221 seconds
#
# Revision: 2
# Processed by: cddbd v1.4PL0 Copyright (c) Steve Scherf et al.
# Submitted via: CDex 1.40Beta9
#
DISCID=69107b19
DTITLE=John Jackson - Country Blues and Ditties
DYEAR=1900
DGENRE=Blues
TTITLE0=Diddy Wa Diddy
TTITLE1=Matchbox Blues
TTITLE2=Roll On Buddy
TTITLE3=T.B. Blues
TTITLE4=Guitar Rag (guitar instrumental)
TTITLE5=Railroad Bill
TTITLE6=Waiting for a Train
TTITLE7=Cindy (banjo)
TTITLE8=Steamboat Whistle
TTITLE9=I'll Step Aside
TTITLE10=John's Gutar Boogie (guitar instrumental)
TTITLE11=Brown Skin Mama
TTITLE12=Keep Your Lamp Trimmed and Burning
TTITLE13=Screaming and Crying
TTITLE14=He's in the Jailhouse Now
TTITLE15=Red Sea Blues
TTITLE16=Kneel at the Cross
TTITLE17=Going up North (banjo)
TTITLE18=Lay Down My Old Guitar
TTITLE19=Too Tight
TTITLE20=Just a Closer Walk With Thee
TTITLE21=Deep in the Bottm Blues
TTITLE22=That'll Never Happen No More
TTITLE23=I'm a Bad, Bad Man
TTITLE24=Why I quit Plaing Gutiar (story)
EXTD=ID3G: 0
EXTT0=
EXTT1=
EXTT2=
EXTT3=
EXTT4=
EXTT5=
EXTT6=
EXTT7=
EXTT8=
EXTT9=
EXTT10=
EXTT11=
EXTT12=
EXTT13=
EXTT14=
EXTT15=
EXTT16=
EXTT17=
EXTT18=
EXTT19=
EXTT20=
EXTT21=
EXTT22=
EXTT23=
EXTT24=
PLAYORDER=
